<svg id="Layer_1" enable-background="new 0 0 256 256" height="512" viewBox="0 0 256 256" width="512" xmlns="http://www.w3.org/2000/svg"><g><g><path d="m223.027 122.319-.594 4.564-1.525 11.722-1.587 12.161h-55.878c4.853-5.917 8.138-12.17 9.156-18.452.663-4.032.383-8.082-.999-12.049-2.058-5.877-6.683-11.174-9.912-13.449 1.353-2.035 3.127-3.78 5.264-5.096l14.28-8.811 1.391-10.696 1.232-9.426 1.129-8.708 2.557-19.609c.308-2.324 2.436-3.967 4.76-3.659l17.304 2.249c2.324.299 3.967 2.436 3.659 4.76l-3.435 26.338-2.875 22.101 11.554 12.18c3.53 3.716 5.182 8.812 4.519 13.88z" fill="#13bf6d"/></g><g><path d="m18.697 97.063 20.925-2.156c-4.405 10.528-6.86 22.073-6.925 34.178-2.025.504-3.519 2.333-3.519 4.517v17.164h-6.655c-1.027 0-2.016.177-2.931.495l-5.059-49.083c-.26-2.557 1.606-4.853 4.164-5.115z" fill="#13bf6d"/></g><g><path d="m19.962 104.439c-.141-1.374.857-2.602 2.23-2.743l14.328-1.477c1.378-.14 2.602.857 2.744 2.23.141 1.374-.857 2.602-2.23 2.743l-14.328 1.477c-1.393.14-2.604-.871-2.744-2.23z" fill="#76ffba"/></g><g><path d="m79.306 116.598-3.556-.383c-2.557-.28-4.863 1.577-5.143 4.135l-3.285 30.417h-17.117v-17.164c0-2.184-1.503-4.023-3.528-4.527.103-12.964 3.463-25.19 9.296-35.849 8.456-.877 15.232-1.577 16.062-1.661 2.557-.261 4.853 1.605 5.115 4.163z" fill="#13bf6d"/></g><g><path d="m69.418 117.856-1.637-15.831-15.297 1.586c-1.383.138-2.603-.856-2.744-2.229-.143-1.374.855-2.602 2.229-2.745l17.784-1.844c1.371-.143 2.604.856 2.744 2.23l1.894 18.319c.143 1.373-.855 2.602-2.229 2.744-1.387.14-2.603-.866-2.744-2.23z" fill="#76ffba"/></g><g><path d="m122.957 39.394c-37.538 0-69.728 22.913-83.336 55.514-4.405 10.528-6.86 22.073-6.925 34.178.364-.103.756-.149 1.148-.149h11.694c.392 0 .775.047 1.139.14.103-12.964 3.463-25.19 9.296-35.849v-.009c12.954-23.706 38.126-39.825 66.984-39.825 24.136 0 45.686 11.265 59.667 28.821l1.232-9.426 1.129-8.708c-16.174-15.298-38.004-24.687-62.028-24.687z" fill="#f2e1d6"/></g><g><path d="m114.259 150.766h-46.936l3.288-30.415c.277-2.563 2.579-4.415 5.142-4.138l3.554.385 27.066 2.931c-4.005 10.369-.281 21.288 7.886 31.237z" fill="#f0c020"/></g><g><path d="m76.017 153.252c-1.373-.148-2.365-1.381-2.217-2.754l2.779-25.709c.148-1.372 1.383-2.366 2.755-2.217l12.07 1.307c1.372.148 2.364 1.382 2.216 2.754-.149 1.373-1.376 2.371-2.755 2.216l-9.584-1.038-2.511 23.224c-.151 1.402-1.417 2.368-2.753 2.217zm28.47-22.928-3.681-.398c-1.372-.148-2.364-1.382-2.216-2.754s1.377-2.371 2.755-2.216l3.681.398c1.372.148 2.364 1.382 2.216 2.754-.149 1.382-1.397 2.368-2.755 2.216z" fill="#f9e5af"/></g><g><path d="m222.433 126.883-1.525 11.722-1.577 12.161h-55.887c4.853-5.917 8.138-12.17 9.156-18.452.663-4.032.383-8.082-.999-12.049z" fill="#efefef"/></g><g><path d="m211.321 139.878c-1.369-.178-2.334-1.433-2.156-2.802l1.526-11.715c.18-1.369 1.425-2.335 2.803-2.156 1.369.178 2.334 1.433 2.156 2.802l-1.526 11.715c-.177 1.353-1.413 2.334-2.803 2.156z" fill="#fff"/></g><g><path d="m171.602 120.266c-2.058-5.877-6.683-11.174-9.912-13.449-6.458-4.601-13.253-2.567-22.838-2.567-10.808 0-18.554-2.091-25.293 4.648-3.435 3.435-5.787 7-7.187 10.63-4.004 10.369-.28 21.289 7.887 31.238h49.186c4.853-5.917 8.138-12.17 9.156-18.452.662-4.031.382-8.082-.999-12.048z" fill="#fc5d3d"/></g><g><path d="m157.617 144.19c-1.117-.812-1.364-2.375-.553-3.492.267-.366.522-.731.768-1.095.772-1.145 2.327-1.446 3.471-.673 1.145.773 1.446 2.327.674 3.471-.278.411-.567.824-.867 1.237-.812 1.116-2.377 1.363-3.493.552zm5.866-9.793c-1.346-.31-2.186-1.651-1.876-2.997 1.719-7.482-3.441-16.5-10.851-16.5-1.381 0-2.5-1.119-2.5-2.5s1.119-2.5 2.5-2.5c10.729 0 18.212 11.82 15.724 22.621-.311 1.351-1.657 2.185-2.997 1.876z" fill="#ffcbc2"/></g><g><path d="m220.909 138.605-1.587 12.161h-55.878c4.853-5.917 8.138-12.17 9.156-18.452z" fill="#f0c020"/></g><g><path d="m209.583 153.246c-1.369-.178-2.335-1.432-2.157-2.801l1.735-13.365c.179-1.37 1.433-2.336 2.802-2.157 1.369.178 2.335 1.432 2.157 2.801l-1.735 13.365c-.178 1.362-1.424 2.335-2.802 2.157z" fill="#f9e5af"/></g><g><path d="m213.265 47.822-3.435 26.338-25.974-1.372 1.129-8.708 2.557-19.609c.308-2.324 2.436-3.967 4.76-3.659l17.304 2.249c2.324.299 3.967 2.437 3.659 4.761z" fill="#f0c020"/></g><g><path d="m200.44 76.481c-1.513 0-2.677-1.328-2.482-2.823l2.907-22.318c.179-1.369 1.422-2.335 2.803-2.156 1.369.178 2.334 1.433 2.156 2.802l-2.907 22.318c-.164 1.259-1.239 2.177-2.477 2.177z" fill="#f9e5af"/></g><g><path d="m212.848 128.163c-1.369-.178-2.334-1.433-2.156-2.802l.596-4.573c.201-1.539-.298-3.07-1.368-4.203l-14.614-15.398c-.519-.546-.763-1.297-.666-2.044l3.319-25.485c.179-1.369 1.42-2.331 2.803-2.156 1.369.178 2.334 1.433 2.156 2.802l-3.166 24.305 13.799 14.539c2.11 2.233 3.092 5.252 2.695 8.287l-.595 4.573c-.178 1.358-1.421 2.333-2.803 2.155z" fill="#76ffba"/></g><g><path d="m50.205 133.603v17.164h-21.027v-17.164c0-2.184 1.493-4.013 3.519-4.517.364-.103.756-.149 1.148-.149h11.694c.392 0 .775.047 1.139.14 2.025.503 3.527 2.342 3.527 4.526z" fill="#72c1e8"/></g><g><path d="m223.391 150.766h-200.868c-1.027 0-2.016.177-2.931.495-3.481 1.21-5.992 4.514-5.992 8.428 0 4.929 4.007 8.913 8.922 8.913h200.868c4.928 0 8.922-3.995 8.922-8.913v-.009c.002-4.919-3.993-8.914-8.921-8.914z" fill="#f2e1d6"/></g><g><g><path d="m199.957 249.334h-154.006c-7.034 0-12.976-5.22-13.883-12.195l-8.907-68.536h199.587l-8.907 68.536c-.907 6.975-6.849 12.195-13.884 12.195z" fill="#b35034"/></g><g><path d="m199.958 241.568h-141.193c-1.381 0-2.5-1.119-2.5-2.5s1.119-2.5 2.5-2.5h141.193c.617 0 1.144-.462 1.223-1.075l7.399-56.946c.178-1.369 1.434-2.331 2.802-2.157 1.369.178 2.335 1.432 2.157 2.801l-7.399 56.947c-.404 3.095-3.061 5.43-6.182 5.43zm-151.193 0h-2.815c-1.381 0-2.5-1.119-2.5-2.5s1.119-2.5 2.5-2.5h2.814c1.381 0 2.5 1.119 2.5 2.5s-1.118 2.5-2.499 2.5z" fill="#f2e1d6"/></g></g><g><path d="m239.745 21.663c-3.961-1.309-8.051-2.453-10.348-12.345-2.115 9.112-5.504 10.745-10.348 12.345 7.9 2.61 9.092 6.933 10.348 12.345 2.165-9.33 5.746-10.824 10.348-12.345z" fill="#f0c020"/></g><g><path d="m37.413 53.244c-3.961-1.309-8.051-2.453-10.348-12.345-2.115 9.112-5.504 10.745-10.348 12.345 7.9 2.61 9.092 6.933 10.348 12.345 2.165-9.33 5.746-10.824 10.348-12.345z" fill="#f0c020"/></g><g><path d="m109.098 84.236c-3.961-1.309-8.051-2.453-10.348-12.345-2.115 9.112-5.504 10.745-10.348 12.345 7.9 2.61 9.092 6.933 10.348 12.345 2.165-9.329 5.746-10.824 10.348-12.345z" fill="#f0c020"/></g><g><path d="m124.973 93.289 4.145 2.299c1.208.67 2.729.234 3.399-.973.669-1.208.233-2.729-.974-3.399l-4.145-2.299c-1.21-.671-2.729-.234-3.399.973-.669 1.208-.233 2.729.974 3.399z"/><circle cx="155.96" cy="249.33" r="2.5"/><path d="m157.399 48.91c1.294.543 2.738-.058 3.28-1.32.54-1.27-.05-2.74-1.32-3.28-1.239-.53-2.75.08-3.279 1.32-.54 1.26.05 2.74 1.319 3.28z"/><path d="m223.392 148.267h-1.223l3.337-25.624c.766-5.846-1.124-11.65-5.182-15.923l-10.735-11.316 6.154-47.252c.492-3.7-2.119-7.094-5.814-7.568l-17.298-2.249c-3.646-.482-7.071 2.064-7.566 5.814l-1.943 14.916c-4.514-3.853-9.39-7.281-14.552-10.204-1.159-.66-2.76-.21-3.409.95-.665 1.167-.284 2.714.939 3.41 5.845 3.294 11.294 7.278 16.242 11.829l-1.47 11.286c-14.917-16.232-35.719-25.441-57.915-25.441-42.354 0-76.97 33.561-78.712 75.542h-8.967c1.638-46.97 40.144-84.546 87.682-84.546 8.609 0 17.13 1.25 25.31 3.71 1.29.39 2.721-.39 3.11-1.68.39-1.31-.35-2.71-1.67-3.11-8.65-2.6-17.65-3.92-26.75-3.92-37.959.019-70.659 22.766-85.048 55.679l-19.473 2.01c-4.05.42-6.829 4.078-6.39 7.85l1.05 10.28c.156 1.416 1.427 2.374 2.75 2.23 1.37-.14 2.37-1.37 2.23-2.74 0-.01 0-.01 0-.02l-1.061-10.26c-.129-1.185.761-2.263 1.931-2.37l16.853-1.739c-3.47 9.483-5.328 19.415-5.555 29.617-2.163 1.253-3.57 3.567-3.57 6.175v14.664l-4.877.023-1.67-16.2c-.14-1.36-1.39-2.37-2.74-2.23-1.412.147-2.373 1.392-2.229 2.74l1.766 17.139c-3.548 1.996-5.825 5.775-5.825 9.95 0 5.688 4.224 10.521 9.848 11.299l2.157 16.59h-1.464c-1.381 0-2.5 1.119-2.5 2.5s1.119 2.5 2.5 2.5h2.114l3.536 27.199h-1.282c-1.381 0-2.5 1.119-2.5 2.5s1.119 2.5 2.5 2.5h1.932l1.649 12.683c1.068 8.183 8.018 14.37 16.36 14.37h100.01c1.37 0 2.49-1.12 2.49-2.5 0-1.37-1.12-2.5-2.49-2.5h-1.325c1.265-4.464 1.184-9.362 1.554-22.053h32.934c-.577 7.002-.44 21.959-7.274 22.053h-5.889c-1.38 0-2.5 1.13-2.5 2.5 0 1.38 1.12 2.5 2.5 2.5h34c8.317 0 15.289-6.168 16.359-14.37l1.649-12.683h1.928c1.381 0 2.5-1.119 2.5-2.5s-1.119-2.5-2.5-2.5h-1.278l3.536-27.199h2.119c1.381 0 2.5-1.119 2.5-2.5s-1.119-2.5-2.5-2.5h-1.469l2.158-16.596c5.556-.769 9.852-5.534 9.852-11.302-.003-6.293-5.127-11.413-11.424-11.413zm-54.965 0c3.017-4.408 5.091-8.817 6.155-13.172l43.522 5.667-.978 7.505zm-52.968 0c-5.523-7.02-10.835-17.271-6.755-27.838 1.31-3.393 3.537-6.677 6.622-9.762 4.606-4.606 9.639-4.398 17.245-4.083 6.039.25 7.846.218 13.102-.081 6.055-.346 10.433-.594 14.577 2.358 3.031 2.136 7.212 7.149 8.99 12.228 1.204 3.457 1.505 7.098.893 10.827-.858 5.295-3.531 10.792-7.907 16.352h-46.767zm-62.754 0v-14.664c0-2.58-1.375-4.875-3.489-6.138.336-11.12 3.205-22.082 8.346-31.888 7.823-.812 13.94-1.443 14.73-1.523 1.198-.115 2.25.749 2.373 1.933l1.839 17.794-.482-.052c-3.957-.426-7.473 2.432-7.896 6.354l-3.047 28.184zm20.391-27.648c.063-.575.345-1.091.796-1.454s1.008-.526 1.592-.466l27.599 2.988c-2.149 8.429-.049 17.492 6.176 26.58h-39.152zm145.654 15.184-43.392-5.65c.169-2.346.039-4.66-.394-6.929l44.667 5.815zm-2.052-25.641c3.015 3.176 4.419 7.489 3.851 11.833l-.272 2.087-46.884-6.104c-1.966-4.689-5.254-8.867-8.214-11.547.908-.996 1.931-1.871 3.088-2.583l14.279-8.811c.641-.395 1.069-1.059 1.167-1.805l2.322-17.826 20.972 1.107-2.53 19.424c-.097.746.147 1.497.666 2.043zm-24.718-66.87 17.308 2.25c.939.121 1.627.986 1.497 1.957l-3.135 24.042-20.968-1.107 3.339-25.635c.125-.942.981-1.637 1.959-1.507zm-69.023 12.602c22.221 0 42.951 9.857 57.051 27.072l-1.1 8.442-13.265 8.184c-1.728 1.064-3.249 2.382-4.562 3.914-5.938-3.156-12.044-2.075-19.517-1.81.469-4.416 1.979-8.684 4.421-12.402.758-1.154.437-2.704-.717-3.462-1.155-.757-2.704-.438-3.463.717-2.978 4.534-4.783 9.764-5.265 15.163-9.784-.239-17.707-1.623-24.749 5.419-3.052 3.052-5.39 6.313-6.982 9.714l-23.223-2.514-1.948-18.856c-.404-3.932-3.917-6.794-7.853-6.396-.662.067-5.099.525-11.144 1.151 13.51-21.296 36.959-34.336 62.316-34.336zm-91.279 77.709c0-1.253 1.052-2.167 2.167-2.167h11.694c1.215 0 2.166.975 2.166 2.167v14.664h-16.027zm151.87 37.499-1.358 16.476h-34.917l.48-16.476zm-40.798 0-.48 16.476h-38.632l-.48-16.476zm-41.478 75.728h-27.213c-6.836-.094-6.693-15.016-7.273-22.053h32.934c.376 12.93.303 17.64 1.552 22.053zm-34.899-27.053-2.243-27.199h34.651l.793 27.199zm37.411-27.199h38.341l-.792 27.199h-36.756zm-5.628-21.476.48 16.476h-34.918l-1.359-16.476zm-72.146 0h31.333l1.359 16.476h-30.551zm2.791 21.476h30.314l2.243 27.199h-29.023zm5.749 44.242-1.565-12.043h28.785c1.071 12.986.895 17.212 4.103 22.053h-19.923c-5.761 0-10.66-4.3-11.4-10.01zm104.788 10.01h-32.768c-1.623-3.625-1.543-11.585-1.848-22.053h36.465c-.31 10.653-.237 18.456-1.849 22.053zm6.997-27.053.792-27.199h34.651l-2.242 27.199zm65.024 17.043c-.739 5.71-5.64 10.01-11.399 10.01h-19.924c3.206-4.837 3.022-8.932 4.104-22.053h28.785zm2.215-17.043h-29.022l2.242-27.199h30.314zm-26.368-32.199 1.358-16.476h31.334l-2.141 16.476zm36.186-21.476c-.402 0-199.846-.004-200.25 0-4.741 0-7.041-3.257-7.041-6.422 0-3.398 2.678-6.353 6.453-6.413h200.839c3.541 0 6.422 2.877 6.422 6.422-.002 3.536-2.882 6.413-6.423 6.413z"/><path d="m16.87 124.89c1.406-.147 2.373-1.38 2.229-2.75-.14-1.36-1.38-2.36-2.74-2.23-1.369.15-2.369 1.38-2.229 2.75.146 1.432 1.469 2.392 2.74 2.23z"/><path d="m240.579 19.137c-3.729-1.228-6.642-2.022-8.591-10.421-.635-2.737-4.548-2.73-5.181 0-1.907 8.213-4.566 9.092-8.591 10.422-2.424.801-2.429 4.248 0 5.051 6.686 2.209 7.444 5.476 8.591 10.421.637 2.743 4.545 2.742 5.182 0 1.905-8.212 4.709-9.139 8.591-10.421 2.423-.801 2.429-4.249-.001-5.052zm-11.129 6.99c-.942-1.587-2.25-3.089-4.164-4.403 1.549-1.062 2.935-2.504 4.121-4.638 1.2 2.161 2.566 3.592 3.978 4.601-1.473 1.035-2.794 2.423-3.935 4.44z"/><path d="m15.884 55.77c6.686 2.209 7.444 5.476 8.591 10.421.637 2.743 4.545 2.742 5.182 0 1.905-8.212 4.709-9.139 8.591-10.421 2.424-.801 2.43-4.249 0-5.051-3.729-1.228-6.641-2.022-8.591-10.421-.635-2.737-4.548-2.73-5.181 0-1.907 8.213-4.566 9.092-8.591 10.422-2.425.8-2.431 4.247-.001 5.05zm11.192-7.103c1.2 2.161 2.566 3.592 3.978 4.601-1.472 1.035-2.794 2.423-3.934 4.439-.942-1.587-2.25-3.089-4.164-4.403 1.547-1.061 2.933-2.503 4.12-4.637z"/><path d="m87.568 86.762c6.686 2.209 7.444 5.476 8.591 10.421.637 2.743 4.545 2.742 5.182 0 1.905-8.212 4.709-9.139 8.591-10.421 2.424-.801 2.43-4.249 0-5.051-3.729-1.228-6.642-2.022-8.591-10.421-.635-2.737-4.548-2.73-5.181 0-1.907 8.213-4.566 9.092-8.591 10.422-2.425.8-2.43 4.248-.001 5.05zm11.192-7.102c1.2 2.161 2.566 3.592 3.977 4.601-1.472 1.035-2.794 2.423-3.934 4.439-.942-1.587-2.25-3.089-4.164-4.403 1.549-1.062 2.935-2.503 4.121-4.637z"/></g></g></svg>