<svg id="Layer_1" enable-background="new 0 0 512 512" height="512" viewBox="0 0 512 512" width="512" xmlns="http://www.w3.org/2000/svg"><g><path d="m355.5 502h-199c0-15.783.734-26.017 14.664-33.438 4.491-2.393 14.871-5.883 19.362-8.276 20.542-10.944 29.962-39.296 33.378-64.429 2.751-20.242-4.967-40.499-20.422-53.857h105.035c-15.454 13.358-23.172 33.614-20.421 53.856 3.416 25.134 12.924 53.324 33.378 64.431 4.263 2.315 14.099 5.96 18.362 8.275 13.87 7.532 15.664 17.655 15.664 33.438z" fill="#fff"/><path d="m408.5 189c0 91-107.5 173-152.5 173s-152.5-82-152.5-173c0-47.71 56.53-179 56.53-179h191.94s56.53 131.29 56.53 179z" fill="#fff"/><path d="m399.92 234.5c-26.34 71.13-106.61 127.5-143.92 127.5s-117.58-56.37-143.92-127.5c5.15-3.71 14.67-9.25 25.56-9.25 16.37 0 29.36 12.5 29.36 12.5s13.17 12.5 29.54 12.5 29.64-12.5 29.64-12.5 13.27-12.5 29.63-12.5c16.37 0 29.64 12.5 29.64 12.5s13.27 12.5 29.64 12.5 29.64-12.5 29.64-12.5 13.26-12.5 29.63-12.5c10.89 0 20.41 5.54 25.56 9.25z" fill="#ff7b79"/><g><path d="m415.93 165.91c-.89-4.72-5.02-8.14-9.82-8.14-.62 0-1.25.06-1.86.17-2.63.5-4.9 1.99-6.41 4.19-1.51 2.21-2.06 4.87-1.57 7.49 1.47 7.72 2.24 14.42 2.23 19.38.005 10.064-1.44 20.323-4.292 30.699-5.744-2.556-12.481-4.449-19.848-4.449-20.109 0-35.83 14.602-36.487 15.221-.104.098-10.719 9.779-22.783 9.779s-22.71-9.712-22.783-9.779c-.66-.621-16.39-15.221-36.497-15.221-20.097 0-35.827 14.6-36.487 15.221-.104.098-10.719 9.779-22.783 9.779-11.924 0-22.38-9.5-22.684-9.78-1.357-1.283-16.558-15.22-36.216-15.22-7.348 0-14.07 1.884-19.804 4.431-2.862-10.406-4.344-20.695-4.336-30.681-.05-9.66 2.95-25.79 8.47-45.41 8.09-29.08 43.83-121.55 44.69-123.59h178.68c5.14 12.25 15.26 36.94 25.46 64.92 1.43 3.93 5.21 6.58 9.39 6.58 1.17 0 2.32-.21 3.43-.61 5.18-1.89 7.86-7.64 5.97-12.82-13.46-36.93-26.91-68.47-28.4-71.95l-.04-.08c-1.58-3.67-5.18-6.04-9.18-6.04h-191.94c-4 0-7.6 2.37-9.19 6.05-.58 1.36-43.38 115.1-48.14 132.17-6.23 22.52-9.15 38.66-9.2 50.78.01 23 6.28 46.57 18.65 70.08 8.14 15.43 18.69 30.47 31.37 44.72 11.54 12.98 24.48 24.91 38.43 35.44 5.169 3.894 10.323 7.471 15.443 10.739 12.668 11.215 18.876 27.808 16.603 44.531-3.906 28.736-14.174 49.494-28.172 56.951-1.747.931-16.618 6.813-19.361 8.275-19.963 10.635-19.963 27.438-19.963 42.264 0 5.523 4.477 10 10 10h199c5.523 0 10-4.477 10-10 0-16.274-1.598-31.749-20.892-42.226-2.561-1.39-16.659-7.351-18.362-8.275-14.063-7.636-24.356-28.408-28.242-56.989-2.273-16.727 3.939-33.324 16.613-44.539 2.923-1.863 5.857-3.828 8.793-5.89 12.06-8.5 23.6-18.21 34.3-28.88 11.52-11.48 21.73-23.77 30.36-36.51 9.46-13.99 16.83-28.32 21.92-42.6 5.64-15.8 8.5-31.64 8.51-47.09-.01-6.361-.85-13.911-2.57-23.091zm-137.743 231.293c2.793 20.548 11.511 57.208 38.515 71.872 2.56 1.39 16.659 7.351 18.362 8.275 6.289 3.415 8.988 6.829 9.964 14.65h-178.237c.672-7.936 2.789-11.264 9.075-14.612 1.747-.931 11.587-4.824 12.967-5.388h57.667c5.523 0 10-4.477 10-10s-4.477-10-10-10h-32.178c12.472-17.173 17.491-40.077 19.491-54.796 1.693-12.45-.258-22.289-5.124-31.101 10.262 3.919 19.25 5.857 27.311 5.898 6.74-.01 14.15-1.39 22.64-4.22 1.003-.335 2.017-.695 3.037-1.068-3.805 8.978-5.062 18.926-3.49 30.49zm39.823-73.933c-11.9 8.97-24.12 16.39-35.34 21.45-10.27 4.67-19.99 7.36-26.67 7.28h-.09c-4.34 0-10.1-1.13-16.22-3.19-11.79-3.92-25.85-11.41-39.59-21.09-23.21-16.31-44.38-37.7-59.6-60.23-6.452-9.531-11.778-19.196-15.958-28.853 3.745-1.837 8.315-3.386 13.099-3.386 11.997 0 22.358 9.642 22.476 9.753.656.623 16.295 15.247 36.424 15.247 20.107 0 35.837-14.6 36.497-15.221.104-.098 10.718-9.779 22.773-9.779 12.064 0 22.71 9.712 22.783 9.779.66.622 16.389 15.221 36.497 15.221 20.107 0 35.837-14.6 36.466-15.192.106-.098 10.742-9.808 22.804-9.808 4.794 0 9.372 1.556 13.122 3.398-1.606 3.696-3.379 7.401-5.331 11.112-13.922 26.519-37.302 53.309-64.142 73.509z"/><path d="m385.172 127.14c1.31 4.21 5.139 7.03 9.538 7.03 1.01 0 2.009-.15 2.979-.45 2.549-.8 4.639-2.53 5.879-4.9 1.24-2.36 1.49-5.07.69-7.62-1.3-4.21-5.139-7.03-9.538-7.03-1.01 0-2.009.15-2.979.45-5.259 1.64-8.209 7.26-6.569 12.52z"/><path d="m163.49 146.61c.31-.86 1.26-3.31 1.26-3.32 1.02-2.47 1.01-5.19-.03-7.65-1.03-2.47-2.96-4.38-5.43-5.39-1.21-.5-2.49-.75-3.79-.75-4.07 0-7.71 2.44-9.25 6.21l-.01.02c-.42 1.02-2.6 6.5-4.83 13.97-2.09 7.11-4.87 17.78-4.91 28.3 0 3.08.25 5.84.76 8.43.92 4.68 5.04 8.07 9.8 8.07.64 0 1.3-.06 1.94-.19 5.41-1.06 8.95-6.33 7.88-11.74-.25-1.27-.38-2.85-.38-4.57-.03-5.58 1.49-14.02 4.08-22.6 1.1-3.67 2.19-6.8 2.91-8.79z"/></g></g></svg>