<?xml version="1.0" encoding="iso-8859-1"?>
<!-- Generator: Adobe Illustrator 19.0.0, SVG Export Plug-In . SVG Version: 6.00 Build 0)  -->
<svg version="1.1" id="Capa_1" xmlns="http://www.w3.org/2000/svg" xmlns:xlink="http://www.w3.org/1999/xlink" x="0px" y="0px"
	 viewBox="0 0 473.67 473.67" style="enable-background:new 0 0 473.67 473.67;" xml:space="preserve">
<path style="fill:#E6E6E6;" d="M17.67,128.835h144v280h-144V128.835z"/>
<path style="fill:#29ABE2;" d="M161.67,128.835h48v280h-48V128.835z"/>
<path style="fill:#0071BC;" d="M161.67,128.835l24-56l24,56H161.67z"/>
<path style="fill:#CCCCCC;" d="M185.67,72.835h-144l-24,56h144L185.67,72.835z"/>
<g>
	<path style="fill:#29ABE2;" d="M41.67,32.835h144v40h-144V32.835z"/>
	<circle style="fill:#29ABE2;" cx="89.67" cy="208.835" r="24"/>
</g>
<path style="fill:#C69C6D;" d="M68.462,371.387L15.27,409.395c-6.204,4.413-8.801,12.359-6.4,19.584
	c2.36,7.083,8.99,11.86,16.456,11.856H92.87L68.462,371.387z"/>
<path style="fill:#A67C52;" d="M128.726,341.435l-52.504,15c-8.694,2.487-14.025,11.228-12.256,20.096l12.904,64.304h79.152
	L128.726,341.435z"/>
<path style="fill:#8C6239;" d="M273.67,440.835H131.982l-12.496-92.336c-1.286-9.488,5.363-18.221,14.851-19.507
	c0.773-0.105,1.553-0.157,2.333-0.157h137V440.835z"/>
<g>
	<path style="fill:#F7931E;" d="M353.534,416.835H313.67c-44.238-0.048-80.087-35.898-80.136-80.136v-87.864c0-4.418,3.582-8,8-8
		l0,0H425.67c4.418,0,8,3.582,8,8v87.864C433.622,380.937,397.772,416.787,353.534,416.835z"/>
	<path style="fill:#F7931E;" d="M417.67,440.835h-160l-16-32h192L417.67,440.835z"/>
</g>
<path d="M465.67,240.835H241.534c-4.418,0-8,3.582-8,8v72H217.67v-192c0.002-1.081-0.219-2.151-0.648-3.144L193.67,71.235v-38.4
	c0-4.418-3.582-8-8-8h-144c-4.418,0-8,3.582-8,8v38.4l-23.352,54.48c-0.426,0.985-0.647,2.047-0.648,3.12v274.824
	c-10.984,8.626-12.895,24.523-4.269,35.507c4.802,6.115,12.15,9.681,19.925,9.669H417.67c3.047,0.017,5.838-1.699,7.2-4.424
	l13.744-27.576h35.056v-16h-72.296c18.184-13.516,29.784-34.108,31.92-56.664c23.247-3.74,40.349-23.79,40.376-47.336v-48
	C473.67,244.417,470.088,240.835,465.67,240.835L465.67,240.835z M169.67,320.835v-184h32v184H169.67z M117.59,329.499
	c-2.048,2.393-3.628,5.15-4.656,8.128l-38.928,11.12c-9.907,2.909-17.071,11.521-18.128,21.792L25.67,392.115v-255.28h128v184h-17
	C129.358,320.833,122.401,323.992,117.59,329.499L117.59,329.499z M46.942,80.835h126.6l-17.144,40h-126.6L46.942,80.835z
	 M197.542,120.835h-23.744l11.872-27.688L197.542,120.835z M49.67,40.835h128v24h-128V40.835z M16.47,426.435
	c-1.312-3.888,0.079-8.176,3.424-10.552l38.312-27.368l8.864,44.32H25.326C21.301,432.84,17.729,430.258,16.47,426.435z
	 M71.806,374.931c-0.926-4.765,1.932-9.45,6.592-10.808l33.824-9.664l10.608,78.376H83.382L71.806,374.931z M127.414,347.403
	c-0.68-5.111,2.911-9.806,8.022-10.486c0.409-0.054,0.821-0.082,1.234-0.082h96.872c0.068,25.231,12.035,48.952,32.288,64h-64.16v16
	h35.056l8,16H138.982L127.414,347.403z M420.726,416.835l-8,16H262.614l-8-16H420.726z M417.67,336.699
	c-0.04,35.405-28.731,64.096-64.136,64.136H313.67c-35.403-0.044-64.092-28.733-64.136-64.136v-79.864H417.67L417.67,336.699z
	 M457.67,296.835c-0.055,14.547-9.915,27.227-24,30.864v-70.864h24V296.835z"/>
<path d="M321.534,384.835h8v-16h-8c-22.08-0.026-39.974-17.92-40-40v-8h-16v8C265.574,359.747,290.623,384.795,321.534,384.835z"/>
<path d="M265.534,288.835h16v16h-16V288.835z"/>
<path d="M281.67,224.835c0-13.255,10.745-24,24-24h116c15.464,0,28-12.536,28-28s-12.536-28-28-28h-96c-6.627,0-12-5.373-12-12
	c0-6.627,5.373-12,12-12h36c22.08-0.026,39.974-17.92,40-40h-16c0,13.255-10.745,24-24,24h-36c-15.464,0-28,12.536-28,28
	s12.536,28,28,28h96c6.627,0,12,5.373,12,12s-5.373,12-12,12h-116c-22.08,0.026-39.974,17.92-40,40H281.67z"/>
<path d="M89.67,176.835c-17.673,0-32,14.327-32,32s14.327,32,32,32s32-14.327,32-32S107.343,176.835,89.67,176.835z M89.67,224.835
	c-8.837,0-16-7.163-16-16c0-8.837,7.163-16,16-16s16,7.163,16,16C105.67,217.672,98.507,224.835,89.67,224.835z"/>
<path d="M57.67,256.835h64v16h-64V256.835z"/>
<path d="M57.67,288.835h64v16h-64V288.835z"/>
<g>
</g>
<g>
</g>
<g>
</g>
<g>
</g>
<g>
</g>
<g>
</g>
<g>
</g>
<g>
</g>
<g>
</g>
<g>
</g>
<g>
</g>
<g>
</g>
<g>
</g>
<g>
</g>
<g>
</g>
</svg>
